<svg xmlns="http://www.w3.org/2000/svg" xmlns:xlink="http://www.w3.org/1999/xlink" width="500" zoomAndPan="magnify" viewBox="0 0 375 374.999991" height="500" preserveAspectRatio="xMidYMid meet" version="1.0"><defs><clipPath id="4eadf31659"><path d="M 37.5 0 L 337.5 0 L 337.5 375 L 37.5 375 Z M 37.5 0 " clip-rule="nonzero"/></clipPath><clipPath id="5c82d83254"><path d="M 187.5 56.25 L 106.25 56.25 L 106.25 43.75 L 187.5 43.75 Z M 187.5 87.5 L 243.75 87.5 L 243.75 75 L 187.5 75 Z M 225 118.75 L 243.75 118.75 L 243.75 106.25 L 225 106.25 Z M 162.5 87.5 L 175 87.5 L 175 75 L 106.25 75 L 106.25 87.5 Z M 106.25 118.75 L 212.5 118.75 L 212.5 106.25 L 106.25 106.25 Z M 337.5 137.5 L 337.5 156.25 C 337.496094 157.070312 337.414062 157.882812 337.253906 158.6875 C 337.09375 159.488281 336.851562 160.269531 336.539062 161.027344 C 336.222656 161.785156 335.839844 162.503906 335.382812 163.1875 C 334.925781 163.867188 334.40625 164.496094 333.828125 165.078125 C 333.246094 165.65625 332.617188 166.175781 331.9375 166.632812 C 331.253906 167.089844 330.535156 167.472656 329.777344 167.789062 C 329.019531 168.101562 328.238281 168.34375 327.4375 168.503906 C 326.632812 168.664062 325.820312 168.746094 325 168.75 L 324.625 168.75 L 313.1875 357.375 C 313.117188 358.554688 312.933594 359.71875 312.644531 360.863281 C 312.351562 362.011719 311.957031 363.121094 311.457031 364.191406 C 310.957031 365.261719 310.359375 366.277344 309.664062 367.234375 C 308.972656 368.195312 308.195312 369.078125 307.335938 369.890625 C 306.476562 370.703125 305.546875 371.425781 304.550781 372.0625 C 303.550781 372.695312 302.503906 373.234375 301.40625 373.671875 C 300.308594 374.109375 299.175781 374.4375 298.015625 374.660156 C 296.855469 374.886719 295.683594 375 294.5 375 L 80.5 375 C 79.316406 375 78.144531 374.886719 76.984375 374.660156 C 75.824219 374.4375 74.691406 374.109375 73.59375 373.671875 C 72.496094 373.234375 71.449219 372.695312 70.449219 372.0625 C 69.453125 371.425781 68.523438 370.703125 67.664062 369.890625 C 66.804688 369.078125 66.027344 368.195312 65.335938 367.234375 C 64.640625 366.277344 64.042969 365.261719 63.542969 364.191406 C 63.042969 363.121094 62.648438 362.011719 62.355469 360.863281 C 62.066406 359.71875 61.882812 358.554688 61.8125 357.375 L 50.375 168.75 L 50 168.75 C 49.179688 168.746094 48.367188 168.664062 47.5625 168.503906 C 46.761719 168.34375 45.980469 168.101562 45.222656 167.789062 C 44.464844 167.472656 43.746094 167.089844 43.0625 166.632812 C 42.382812 166.175781 41.753906 165.65625 41.171875 165.078125 C 40.59375 164.496094 40.074219 163.867188 39.617188 163.1875 C 39.160156 162.503906 38.777344 161.785156 38.460938 161.027344 C 38.148438 160.269531 37.90625 159.488281 37.746094 158.6875 C 37.585938 157.882812 37.503906 157.070312 37.5 156.25 L 37.5 137.5 C 37.503906 136.679688 37.585938 135.867188 37.746094 135.0625 C 37.90625 134.261719 38.148438 133.480469 38.460938 132.722656 C 38.777344 131.964844 39.160156 131.246094 39.617188 130.5625 C 40.074219 129.882812 40.59375 129.253906 41.171875 128.671875 C 41.753906 128.09375 42.382812 127.574219 43.0625 127.117188 C 43.746094 126.660156 44.464844 126.277344 45.222656 125.960938 C 45.980469 125.648438 46.761719 125.40625 47.5625 125.246094 C 48.367188 125.085938 49.179688 125.003906 50 125 L 75 125 L 75 18.75 C 75 18.136719 75.035156 17.523438 75.09375 16.914062 C 75.15625 16.304688 75.25 15.699219 75.371094 15.097656 C 75.492188 14.496094 75.640625 13.898438 75.820312 13.3125 C 76 12.726562 76.207031 12.148438 76.441406 11.582031 C 76.679688 11.015625 76.941406 10.464844 77.230469 9.921875 C 77.519531 9.382812 77.835938 8.855469 78.175781 8.347656 C 78.519531 7.835938 78.882812 7.34375 79.273438 6.871094 C 79.664062 6.394531 80.074219 5.941406 80.507812 5.507812 C 80.941406 5.074219 81.394531 4.664062 81.871094 4.273438 C 82.34375 3.882812 82.835938 3.519531 83.347656 3.175781 C 83.855469 2.835938 84.382812 2.519531 84.921875 2.230469 C 85.464844 1.941406 86.015625 1.679688 86.582031 1.441406 C 87.148438 1.207031 87.726562 1 88.3125 0.820312 C 88.898438 0.640625 89.496094 0.492188 90.097656 0.371094 C 90.699219 0.25 91.304688 0.15625 91.914062 0.09375 C 92.523438 0.0351562 93.136719 0 93.75 0 L 212.5 0 C 214.074219 -0.0078125 215.449219 0.515625 216.625 1.5625 L 243 25 L 281.25 25 C 281.863281 25 282.476562 25.035156 283.085938 25.09375 C 283.695312 25.15625 284.300781 25.25 284.902344 25.371094 C 285.503906 25.492188 286.101562 25.640625 286.6875 25.820312 C 287.273438 26 287.851562 26.207031 288.417969 26.441406 C 288.984375 26.679688 289.535156 26.941406 290.078125 27.230469 C 290.617188 27.519531 291.144531 27.835938 291.652344 28.175781 C 292.164062 28.519531 292.65625 28.882812 293.128906 29.273438 C 293.605469 29.664062 294.058594 30.074219 294.492188 30.507812 C 294.925781 30.941406 295.335938 31.394531 295.726562 31.871094 C 296.117188 32.34375 296.480469 32.835938 296.824219 33.347656 C 297.164062 33.855469 297.480469 34.382812 297.769531 34.921875 C 298.058594 35.464844 298.320312 36.015625 298.558594 36.582031 C 298.792969 37.148438 299 37.726562 299.179688 38.3125 C 299.359375 38.898438 299.507812 39.496094 299.628906 40.097656 C 299.75 40.699219 299.84375 41.304688 299.90625 41.914062 C 299.964844 42.523438 300 43.136719 300 43.75 L 300 125 L 325 125 C 325.820312 125.003906 326.632812 125.085938 327.4375 125.246094 C 328.238281 125.40625 329.019531 125.648438 329.777344 125.960938 C 330.535156 126.277344 331.253906 126.660156 331.9375 127.117188 C 332.617188 127.574219 333.246094 128.09375 333.828125 128.671875 C 334.40625 129.253906 334.925781 129.882812 335.382812 130.5625 C 335.839844 131.246094 336.222656 131.964844 336.539062 132.722656 C 336.851562 133.480469 337.09375 134.261719 337.253906 135.0625 C 337.414062 135.867188 337.496094 136.679688 337.5 137.5 Z M 257.0625 37.5 L 272.875 51.5625 C 273.554688 52.148438 274.082031 52.851562 274.453125 53.671875 C 274.824219 54.492188 275.007812 55.351562 275 56.25 L 275 125 L 287.5 125 L 287.5 43.75 C 287.5 43.339844 287.460938 42.933594 287.378906 42.53125 C 287.300781 42.128906 287.179688 41.738281 287.023438 41.359375 C 286.867188 40.980469 286.675781 40.617188 286.445312 40.277344 C 286.21875 39.9375 285.960938 39.621094 285.667969 39.332031 C 285.378906 39.039062 285.0625 38.78125 284.722656 38.554688 C 284.382812 38.324219 284.019531 38.132812 283.640625 37.976562 C 283.261719 37.820312 282.871094 37.699219 282.46875 37.621094 C 282.066406 37.539062 281.660156 37.5 281.25 37.5 Z M 218.75 43.75 C 218.75 44.160156 218.789062 44.566406 218.871094 44.96875 C 218.949219 45.371094 219.070312 45.761719 219.226562 46.140625 C 219.382812 46.519531 219.574219 46.882812 219.804688 47.222656 C 220.03125 47.5625 220.289062 47.878906 220.582031 48.167969 C 220.871094 48.460938 221.1875 48.71875 221.527344 48.945312 C 221.867188 49.175781 222.230469 49.367188 222.609375 49.523438 C 222.988281 49.679688 223.378906 49.800781 223.78125 49.878906 C 224.183594 49.960938 224.589844 50 225 50 L 252.3125 50 L 218.75 20.1875 Z M 87.5 125 L 262.5 125 L 262.5 62.5 L 225 62.5 C 224.386719 62.5 223.773438 62.464844 223.164062 62.40625 C 222.554688 62.34375 221.949219 62.25 221.347656 62.128906 C 220.746094 62.007812 220.148438 61.859375 219.5625 61.679688 C 218.976562 61.5 218.398438 61.292969 217.832031 61.058594 C 217.265625 60.820312 216.714844 60.558594 216.171875 60.269531 C 215.632812 59.980469 215.105469 59.664062 214.597656 59.324219 C 214.085938 58.980469 213.59375 58.617188 213.121094 58.226562 C 212.644531 57.835938 212.191406 57.425781 211.757812 56.992188 C 211.324219 56.558594 210.914062 56.105469 210.523438 55.628906 C 210.132812 55.15625 209.769531 54.664062 209.425781 54.152344 C 209.085938 53.644531 208.769531 53.117188 208.480469 52.578125 C 208.191406 52.035156 207.929688 51.484375 207.691406 50.917969 C 207.457031 50.351562 207.25 49.773438 207.070312 49.1875 C 206.890625 48.601562 206.742188 48.003906 206.621094 47.402344 C 206.5 46.800781 206.40625 46.195312 206.34375 45.585938 C 206.285156 44.976562 206.25 44.363281 206.25 43.75 L 206.25 12.5 L 93.75 12.5 C 93.339844 12.5 92.933594 12.539062 92.53125 12.621094 C 92.128906 12.699219 91.738281 12.820312 91.359375 12.976562 C 90.980469 13.132812 90.617188 13.324219 90.277344 13.554688 C 89.9375 13.78125 89.621094 14.039062 89.332031 14.332031 C 89.039062 14.621094 88.78125 14.9375 88.554688 15.277344 C 88.324219 15.617188 88.132812 15.980469 87.976562 16.359375 C 87.820312 16.738281 87.699219 17.128906 87.621094 17.53125 C 87.539062 17.933594 87.5 18.339844 87.5 18.75 Z M 312.125 168.75 L 62.875 168.75 L 74.25 356.625 C 74.273438 357.019531 74.335938 357.40625 74.433594 357.789062 C 74.527344 358.171875 74.660156 358.542969 74.828125 358.902344 C 74.996094 359.257812 75.195312 359.597656 75.429688 359.917969 C 75.660156 360.238281 75.921875 360.535156 76.207031 360.804688 C 76.496094 361.074219 76.804688 361.316406 77.140625 361.527344 C 77.472656 361.738281 77.824219 361.917969 78.191406 362.0625 C 78.558594 362.207031 78.9375 362.316406 79.324219 362.390625 C 79.714844 362.464844 80.105469 362.5 80.5 362.5 L 294.5 362.5 C 294.894531 362.5 295.285156 362.464844 295.675781 362.390625 C 296.0625 362.316406 296.441406 362.207031 296.808594 362.0625 C 297.175781 361.917969 297.527344 361.738281 297.859375 361.527344 C 298.191406 361.316406 298.503906 361.074219 298.792969 360.804688 C 299.078125 360.535156 299.339844 360.238281 299.570312 359.917969 C 299.804688 359.597656 300.003906 359.257812 300.171875 358.902344 C 300.339844 358.542969 300.472656 358.171875 300.566406 357.789062 C 300.664062 357.40625 300.726562 357.019531 300.75 356.625 Z M 325 137.5 L 50 137.5 L 50 156.25 L 325 156.25 Z M 106.25 331.25 L 106.25 200 C 106.25 199.386719 106.28125 198.773438 106.339844 198.164062 C 106.402344 197.550781 106.492188 196.945312 106.609375 196.34375 C 106.730469 195.738281 106.878906 195.144531 107.058594 194.558594 C 107.234375 193.96875 107.441406 193.390625 107.675781 192.824219 C 107.914062 192.257812 108.175781 191.703125 108.464844 191.160156 C 108.753906 190.621094 109.070312 190.09375 109.410156 189.582031 C 109.75 189.074219 110.117188 188.578125 110.507812 188.105469 C 110.894531 187.628906 111.308594 187.175781 111.742188 186.742188 C 112.175781 186.308594 112.628906 185.894531 113.105469 185.507812 C 113.578125 185.117188 114.074219 184.75 114.582031 184.410156 C 115.09375 184.070312 115.621094 183.753906 116.160156 183.464844 C 116.703125 183.175781 117.257812 182.914062 117.824219 182.675781 C 118.390625 182.441406 118.96875 182.234375 119.558594 182.058594 C 120.144531 181.878906 120.738281 181.730469 121.34375 181.609375 C 121.945312 181.492188 122.550781 181.402344 123.164062 181.339844 C 123.773438 181.28125 124.386719 181.25 125 181.25 C 125.613281 181.25 126.226562 181.28125 126.835938 181.339844 C 127.449219 181.402344 128.054688 181.492188 128.65625 181.609375 C 129.261719 181.730469 129.855469 181.878906 130.441406 182.058594 C 131.03125 182.234375 131.609375 182.441406 132.175781 182.675781 C 132.742188 182.914062 133.296875 183.175781 133.839844 183.464844 C 134.378906 183.753906 134.90625 184.070312 135.417969 184.410156 C 135.925781 184.75 136.421875 185.117188 136.894531 185.507812 C 137.371094 185.894531 137.824219 186.308594 138.257812 186.742188 C 138.691406 187.175781 139.105469 187.628906 139.492188 188.105469 C 139.882812 188.578125 140.25 189.074219 140.589844 189.582031 C 140.929688 190.09375 141.246094 190.621094 141.535156 191.160156 C 141.824219 191.703125 142.085938 192.257812 142.324219 192.824219 C 142.558594 193.390625 142.765625 193.96875 142.941406 194.558594 C 143.121094 195.144531 143.269531 195.738281 143.390625 196.34375 C 143.507812 196.945312 143.597656 197.550781 143.660156 198.164062 C 143.71875 198.773438 143.75 199.386719 143.75 200 L 143.75 331.25 C 143.75 331.863281 143.71875 332.476562 143.660156 333.085938 C 143.597656 333.699219 143.507812 334.304688 143.390625 334.90625 C 143.269531 335.511719 143.121094 336.105469 142.941406 336.691406 C 142.765625 337.28125 142.558594 337.859375 142.324219 338.425781 C 142.085938 338.992188 141.824219 339.546875 141.535156 340.089844 C 141.246094 340.628906 140.929688 341.15625 140.589844 341.667969 C 140.25 342.175781 139.882812 342.671875 139.492188 343.144531 C 139.105469 343.621094 138.691406 344.074219 138.257812 344.507812 C 137.824219 344.941406 137.371094 345.355469 136.894531 345.742188 C 136.421875 346.132812 135.925781 346.5 135.417969 346.839844 C 134.90625 347.179688 134.378906 347.496094 133.839844 347.785156 C 133.296875 348.074219 132.742188 348.335938 132.175781 348.574219 C 131.609375 348.808594 131.03125 349.015625 130.441406 349.191406 C 129.855469 349.371094 129.261719 349.519531 128.65625 349.640625 C 128.054688 349.757812 127.449219 349.847656 126.835938 349.910156 C 126.226562 349.96875 125.613281 350 125 350 C 124.386719 350 123.773438 349.96875 123.164062 349.910156 C 122.550781 349.847656 121.945312 349.757812 121.34375 349.640625 C 120.738281 349.519531 120.144531 349.371094 119.558594 349.191406 C 118.96875 349.015625 118.390625 348.808594 117.824219 348.574219 C 117.257812 348.335938 116.703125 348.074219 116.160156 347.785156 C 115.621094 347.496094 115.09375 347.179688 114.582031 346.839844 C 114.074219 346.5 113.578125 346.132812 113.105469 345.742188 C 112.628906 345.355469 112.175781 344.941406 111.742188 344.507812 C 111.308594 344.074219 110.894531 343.621094 110.507812 343.144531 C 110.117188 342.671875 109.75 342.175781 109.410156 341.667969 C 109.070312 341.15625 108.753906 340.628906 108.464844 340.089844 C 108.175781 339.546875 107.914062 338.992188 107.675781 338.425781 C 107.441406 337.859375 107.234375 337.28125 107.058594 336.691406 C 106.878906 336.105469 106.730469 335.511719 106.609375 334.90625 C 106.492188 334.304688 106.402344 333.699219 106.339844 333.085938 C 106.28125 332.476562 106.25 331.863281 106.25 331.25 Z M 118.75 331.25 C 118.75 331.660156 118.789062 332.066406 118.871094 332.46875 C 118.949219 332.871094 119.070312 333.261719 119.226562 333.640625 C 119.382812 334.019531 119.574219 334.382812 119.804688 334.722656 C 120.03125 335.0625 120.289062 335.378906 120.582031 335.667969 C 120.871094 335.960938 121.1875 336.21875 121.527344 336.445312 C 121.867188 336.675781 122.230469 336.867188 122.609375 337.023438 C 122.988281 337.179688 123.378906 337.300781 123.78125 337.378906 C 124.183594 337.460938 124.589844 337.5 125 337.5 C 125.410156 337.5 125.816406 337.460938 126.21875 337.378906 C 126.621094 337.300781 127.011719 337.179688 127.390625 337.023438 C 127.769531 336.867188 128.132812 336.675781 128.472656 336.445312 C 128.8125 336.21875 129.128906 335.960938 129.417969 335.667969 C 129.710938 335.378906 129.96875 335.0625 130.195312 334.722656 C 130.425781 334.382812 130.617188 334.019531 130.773438 333.640625 C 130.929688 333.261719 131.050781 332.871094 131.128906 332.46875 C 131.210938 332.066406 131.25 331.660156 131.25 331.25 L 131.25 200 C 131.25 199.589844 131.210938 199.183594 131.128906 198.78125 C 131.050781 198.378906 130.929688 197.988281 130.773438 197.609375 C 130.617188 197.230469 130.425781 196.867188 130.195312 196.527344 C 129.96875 196.1875 129.710938 195.871094 129.417969 195.582031 C 129.128906 195.289062 128.8125 195.03125 128.472656 194.804688 C 128.132812 194.574219 127.769531 194.382812 127.390625 194.226562 C 127.011719 194.070312 126.621094 193.949219 126.21875 193.871094 C 125.816406 193.789062 125.410156 193.75 125 193.75 C 124.589844 193.75 124.183594 193.789062 123.78125 193.871094 C 123.378906 193.949219 122.988281 194.070312 122.609375 194.226562 C 122.230469 194.382812 121.867188 194.574219 121.527344 194.804688 C 121.1875 195.03125 120.871094 195.289062 120.582031 195.582031 C 120.289062 195.871094 120.03125 196.1875 119.804688 196.527344 C 119.574219 196.867188 119.382812 197.230469 119.226562 197.609375 C 119.070312 197.988281 118.949219 198.378906 118.871094 198.78125 C 118.789062 199.183594 118.75 199.589844 118.75 200 Z M 168.75 331.25 L 168.75 200 C 168.75 199.386719 168.78125 198.773438 168.839844 198.164062 C 168.902344 197.550781 168.992188 196.945312 169.109375 196.34375 C 169.230469 195.738281 169.378906 195.144531 169.558594 194.558594 C 169.734375 193.96875 169.941406 193.390625 170.175781 192.824219 C 170.414062 192.257812 170.675781 191.703125 170.964844 191.160156 C 171.253906 190.621094 171.570312 190.09375 171.910156 189.582031 C 172.25 189.074219 172.617188 188.578125 173.007812 188.105469 C 173.394531 187.628906 173.808594 187.175781 174.242188 186.742188 C 174.675781 186.308594 175.128906 185.894531 175.605469 185.507812 C 176.078125 185.117188 176.574219 184.75 177.082031 184.410156 C 177.59375 184.070312 178.121094 183.753906 178.660156 183.464844 C 179.203125 183.175781 179.757812 182.914062 180.324219 182.675781 C 180.890625 182.441406 181.46875 182.234375 182.058594 182.058594 C 182.644531 181.878906 183.238281 181.730469 183.84375 181.609375 C 184.445312 181.492188 185.050781 181.402344 185.664062 181.339844 C 186.273438 181.28125 186.886719 181.25 187.5 181.25 C 188.113281 181.25 188.726562 181.28125 189.335938 181.339844 C 189.949219 181.402344 190.554688 181.492188 191.15625 181.609375 C 191.761719 181.730469 192.355469 181.878906 192.941406 182.058594 C 193.53125 182.234375 194.109375 182.441406 194.675781 182.675781 C 195.242188 182.914062 195.796875 183.175781 196.339844 183.464844 C 196.878906 183.753906 197.40625 184.070312 197.917969 184.410156 C 198.425781 184.75 198.921875 185.117188 199.394531 185.507812 C 199.871094 185.894531 200.324219 186.308594 200.757812 186.742188 C 201.191406 187.175781 201.605469 187.628906 201.992188 188.105469 C 202.382812 188.578125 202.75 189.074219 203.089844 189.582031 C 203.429688 190.09375 203.746094 190.621094 204.035156 191.160156 C 204.324219 191.703125 204.585938 192.257812 204.824219 192.824219 C 205.058594 193.390625 205.265625 193.96875 205.441406 194.558594 C 205.621094 195.144531 205.769531 195.738281 205.890625 196.34375 C 206.007812 196.945312 206.097656 197.550781 206.160156 198.164062 C 206.21875 198.773438 206.25 199.386719 206.25 200 L 206.25 331.25 C 206.25 331.863281 206.21875 332.476562 206.160156 333.085938 C 206.097656 333.699219 206.007812 334.304688 205.890625 334.90625 C 205.769531 335.511719 205.621094 336.105469 205.441406 336.691406 C 205.265625 337.28125 205.058594 337.859375 204.824219 338.425781 C 204.585938 338.992188 204.324219 339.546875 204.035156 340.089844 C 203.746094 340.628906 203.429688 341.15625 203.089844 341.667969 C 202.75 342.175781 202.382812 342.671875 201.992188 343.144531 C 201.605469 343.621094 201.191406 344.074219 200.757812 344.507812 C 200.324219 344.941406 199.871094 345.355469 199.394531 345.742188 C 198.921875 346.132812 198.425781 346.5 197.917969 346.839844 C 197.40625 347.179688 196.878906 347.496094 196.339844 347.785156 C 195.796875 348.074219 195.242188 348.335938 194.675781 348.574219 C 194.109375 348.808594 193.53125 349.015625 192.941406 349.191406 C 192.355469 349.371094 191.761719 349.519531 191.15625 349.640625 C 190.554688 349.757812 189.949219 349.847656 189.335938 349.910156 C 188.726562 349.96875 188.113281 350 187.5 350 C 186.886719 350 186.273438 349.96875 185.664062 349.910156 C 185.050781 349.847656 184.445312 349.757812 183.84375 349.640625 C 183.238281 349.519531 182.644531 349.371094 182.058594 349.191406 C 181.46875 349.015625 180.890625 348.808594 180.324219 348.574219 C 179.757812 348.335938 179.203125 348.074219 178.660156 347.785156 C 178.121094 347.496094 177.59375 347.179688 177.082031 346.839844 C 176.574219 346.5 176.078125 346.132812 175.605469 345.742188 C 175.128906 345.355469 174.675781 344.941406 174.242188 344.507812 C 173.808594 344.074219 173.394531 343.621094 173.007812 343.144531 C 172.617188 342.671875 172.25 342.175781 171.910156 341.667969 C 171.570312 341.15625 171.253906 340.628906 170.964844 340.089844 C 170.675781 339.546875 170.414062 338.992188 170.175781 338.425781 C 169.941406 337.859375 169.734375 337.28125 169.558594 336.691406 C 169.378906 336.105469 169.230469 335.511719 169.109375 334.90625 C 168.992188 334.304688 168.902344 333.699219 168.839844 333.085938 C 168.78125 332.476562 168.75 331.863281 168.75 331.25 Z M 181.25 331.25 C 181.25 331.660156 181.289062 332.066406 181.371094 332.46875 C 181.449219 332.871094 181.570312 333.261719 181.726562 333.640625 C 181.882812 334.019531 182.074219 334.382812 182.304688 334.722656 C 182.53125 335.0625 182.789062 335.378906 183.082031 335.667969 C 183.371094 335.960938 183.6875 336.21875 184.027344 336.445312 C 184.367188 336.675781 184.730469 336.867188 185.109375 337.023438 C 185.488281 337.179688 185.878906 337.300781 186.28125 337.378906 C 186.683594 337.460938 187.089844 337.5 187.5 337.5 C 187.910156 337.5 188.316406 337.460938 188.71875 337.378906 C 189.121094 337.300781 189.511719 337.179688 189.890625 337.023438 C 190.269531 336.867188 190.632812 336.675781 190.972656 336.445312 C 191.3125 336.21875 191.628906 335.960938 191.917969 335.667969 C 192.210938 335.378906 192.46875 335.0625 192.695312 334.722656 C 192.925781 334.382812 193.117188 334.019531 193.273438 333.640625 C 193.429688 333.261719 193.550781 332.871094 193.628906 332.46875 C 193.710938 332.066406 193.75 331.660156 193.75 331.25 L 193.75 200 C 193.75 199.589844 193.710938 199.183594 193.628906 198.78125 C 193.550781 198.378906 193.429688 197.988281 193.273438 197.609375 C 193.117188 197.230469 192.925781 196.867188 192.695312 196.527344 C 192.46875 196.1875 192.210938 195.871094 191.917969 195.582031 C 191.628906 195.289062 191.3125 195.03125 190.972656 194.804688 C 190.632812 194.574219 190.269531 194.382812 189.890625 194.226562 C 189.511719 194.070312 189.121094 193.949219 188.71875 193.871094 C 188.316406 193.789062 187.910156 193.75 187.5 193.75 C 187.089844 193.75 186.683594 193.789062 186.28125 193.871094 C 185.878906 193.949219 185.488281 194.070312 185.109375 194.226562 C 184.730469 194.382812 184.367188 194.574219 184.027344 194.804688 C 183.6875 195.03125 183.371094 195.289062 183.082031 195.582031 C 182.789062 195.871094 182.53125 196.1875 182.304688 196.527344 C 182.074219 196.867188 181.882812 197.230469 181.726562 197.609375 C 181.570312 197.988281 181.449219 198.378906 181.371094 198.78125 C 181.289062 199.183594 181.25 199.589844 181.25 200 Z M 231.25 331.25 L 231.25 200 C 231.25 199.386719 231.28125 198.773438 231.339844 198.164062 C 231.402344 197.550781 231.492188 196.945312 231.609375 196.34375 C 231.730469 195.738281 231.878906 195.144531 232.058594 194.558594 C 232.234375 193.96875 232.441406 193.390625 232.675781 192.824219 C 232.914062 192.257812 233.175781 191.703125 233.464844 191.160156 C 233.753906 190.621094 234.070312 190.09375 234.410156 189.582031 C 234.75 189.074219 235.117188 188.578125 235.507812 188.105469 C 235.894531 187.628906 236.308594 187.175781 236.742188 186.742188 C 237.175781 186.308594 237.628906 185.894531 238.105469 185.507812 C 238.578125 185.117188 239.074219 184.75 239.582031 184.410156 C 240.09375 184.070312 240.621094 183.753906 241.160156 183.464844 C 241.703125 183.175781 242.257812 182.914062 242.824219 182.675781 C 243.390625 182.441406 243.96875 182.234375 244.558594 182.058594 C 245.144531 181.878906 245.738281 181.730469 246.34375 181.609375 C 246.945312 181.492188 247.550781 181.402344 248.164062 181.339844 C 248.773438 181.28125 249.386719 181.25 250 181.25 C 250.613281 181.25 251.226562 181.28125 251.835938 181.339844 C 252.449219 181.402344 253.054688 181.492188 253.65625 181.609375 C 254.261719 181.730469 254.855469 181.878906 255.441406 182.058594 C 256.03125 182.234375 256.609375 182.441406 257.175781 182.675781 C 257.742188 182.914062 258.296875 183.175781 258.839844 183.464844 C 259.378906 183.753906 259.90625 184.070312 260.417969 184.410156 C 260.925781 184.75 261.421875 185.117188 261.894531 185.507812 C 262.371094 185.894531 262.824219 186.308594 263.257812 186.742188 C 263.691406 187.175781 264.105469 187.628906 264.492188 188.105469 C 264.882812 188.578125 265.25 189.074219 265.589844 189.582031 C 265.929688 190.09375 266.246094 190.621094 266.535156 191.160156 C 266.824219 191.703125 267.085938 192.257812 267.324219 192.824219 C 267.558594 193.390625 267.765625 193.96875 267.941406 194.558594 C 268.121094 195.144531 268.269531 195.738281 268.390625 196.34375 C 268.507812 196.945312 268.597656 197.550781 268.660156 198.164062 C 268.71875 198.773438 268.75 199.386719 268.75 200 L 268.75 331.25 C 268.75 331.863281 268.71875 332.476562 268.660156 333.085938 C 268.597656 333.699219 268.507812 334.304688 268.390625 334.90625 C 268.269531 335.511719 268.121094 336.105469 267.941406 336.691406 C 267.765625 337.28125 267.558594 337.859375 267.324219 338.425781 C 267.085938 338.992188 266.824219 339.546875 266.535156 340.089844 C 266.246094 340.628906 265.929688 341.15625 265.589844 341.667969 C 265.25 342.175781 264.882812 342.671875 264.492188 343.144531 C 264.105469 343.621094 263.691406 344.074219 263.257812 344.507812 C 262.824219 344.941406 262.371094 345.355469 261.894531 345.742188 C 261.421875 346.132812 260.925781 346.5 260.417969 346.839844 C 259.90625 347.179688 259.378906 347.496094 258.839844 347.785156 C 258.296875 348.074219 257.742188 348.335938 257.175781 348.574219 C 256.609375 348.808594 256.03125 349.015625 255.441406 349.191406 C 254.855469 349.371094 254.261719 349.519531 253.65625 349.640625 C 253.054688 349.757812 252.449219 349.847656 251.835938 349.910156 C 251.226562 349.96875 250.613281 350 250 350 C 249.386719 350 248.773438 349.96875 248.164062 349.910156 C 247.550781 349.847656 246.945312 349.757812 246.34375 349.640625 C 245.738281 349.519531 245.144531 349.371094 244.558594 349.191406 C 243.96875 349.015625 243.390625 348.808594 242.824219 348.574219 C 242.257812 348.335938 241.703125 348.074219 241.160156 347.785156 C 240.621094 347.496094 240.09375 347.179688 239.582031 346.839844 C 239.074219 346.5 238.578125 346.132812 238.105469 345.742188 C 237.628906 345.355469 237.175781 344.941406 236.742188 344.507812 C 236.308594 344.074219 235.894531 343.621094 235.507812 343.144531 C 235.117188 342.671875 234.75 342.175781 234.410156 341.667969 C 234.070312 341.15625 233.753906 340.628906 233.464844 340.089844 C 233.175781 339.546875 232.914062 338.992188 232.675781 338.425781 C 232.441406 337.859375 232.234375 337.28125 232.058594 336.691406 C 231.878906 336.105469 231.730469 335.511719 231.609375 334.90625 C 231.492188 334.304688 231.402344 333.699219 231.339844 333.085938 C 231.28125 332.476562 231.25 331.863281 231.25 331.25 Z M 243.75 331.25 C 243.75 331.660156 243.789062 332.066406 243.871094 332.46875 C 243.949219 332.871094 244.070312 333.261719 244.226562 333.640625 C 244.382812 334.019531 244.574219 334.382812 244.804688 334.722656 C 245.03125 335.0625 245.289062 335.378906 245.582031 335.667969 C 245.871094 335.960938 246.1875 336.21875 246.527344 336.445312 C 246.867188 336.675781 247.230469 336.867188 247.609375 337.023438 C 247.988281 337.179688 248.378906 337.300781 248.78125 337.378906 C 249.183594 337.460938 249.589844 337.5 250 337.5 C 250.410156 337.5 250.816406 337.460938 251.21875 337.378906 C 251.621094 337.300781 252.011719 337.179688 252.390625 337.023438 C 252.769531 336.867188 253.132812 336.675781 253.472656 336.445312 C 253.8125 336.21875 254.128906 335.960938 254.417969 335.667969 C 254.710938 335.378906 254.96875 335.0625 255.195312 334.722656 C 255.425781 334.382812 255.617188 334.019531 255.773438 333.640625 C 255.929688 333.261719 256.050781 332.871094 256.128906 332.46875 C 256.210938 332.066406 256.25 331.660156 256.25 331.25 L 256.25 200 C 256.25 199.589844 256.210938 199.183594 256.128906 198.78125 C 256.050781 198.378906 255.929688 197.988281 255.773438 197.609375 C 255.617188 197.230469 255.425781 196.867188 255.195312 196.527344 C 254.96875 196.1875 254.710938 195.871094 254.417969 195.582031 C 254.128906 195.289062 253.8125 195.03125 253.472656 194.804688 C 253.132812 194.574219 252.769531 194.382812 252.390625 194.226562 C 252.011719 194.070312 251.621094 193.949219 251.21875 193.871094 C 250.816406 193.789062 250.410156 193.75 250 193.75 C 249.589844 193.75 249.183594 193.789062 248.78125 193.871094 C 248.378906 193.949219 247.988281 194.070312 247.609375 194.226562 C 247.230469 194.382812 246.867188 194.574219 246.527344 194.804688 C 246.1875 195.03125 245.871094 195.289062 245.582031 195.582031 C 245.289062 195.871094 245.03125 196.1875 244.804688 196.527344 C 244.574219 196.867188 244.382812 197.230469 244.226562 197.609375 C 244.070312 197.988281 243.949219 198.378906 243.871094 198.78125 C 243.789062 199.183594 243.75 199.589844 243.75 200 Z M 243.75 331.25 " clip-rule="nonzero"/></clipPath><linearGradient x1="9.558802" gradientTransform="matrix(6.249999, 0, 0, 6.249999, -12.499993, -12.5)" y1="63.175088" x2="55.792788" gradientUnits="userSpaceOnUse" y2="1.843795" id="d5fbec6b2e"><stop stop-opacity="1" stop-color="rgb(99.693298%, 93.519592%, 0.857544%)" offset="0"/><stop stop-opacity="1" stop-color="rgb(99.615479%, 93.16864%, 1.075745%)" offset="0.00390625"/><stop stop-opacity="1" stop-color="rgb(99.537659%, 92.819214%, 1.293945%)" offset="0.0078125"/><stop stop-opacity="1" stop-color="rgb(99.458313%, 92.468262%, 1.512146%)" offset="0.0117188"/><stop stop-opacity="1" stop-color="rgb(99.380493%, 92.11731%, 1.730347%)" offset="0.015625"/><stop stop-opacity="1" stop-color="rgb(99.302673%, 91.766357%, 1.948547%)" offset="0.0195312"/><stop stop-opacity="1" stop-color="rgb(99.224854%, 91.416931%, 2.166748%)" offset="0.0234375"/><stop stop-opacity="1" stop-color="rgb(99.147034%, 91.065979%, 2.384949%)" offset="0.0273438"/><stop stop-opacity="1" stop-color="rgb(99.069214%, 90.715027%, 2.603149%)" offset="0.03125"/><stop stop-opacity="1" stop-color="rgb(98.991394%, 90.364075%, 2.82135%)" offset="0.0351562"/><stop stop-opacity="1" stop-color="rgb(98.913574%, 90.014648%, 3.039551%)" offset="0.0390625"/><stop stop-opacity="1" stop-color="rgb(98.835754%, 89.663696%, 3.257751%)" offset="0.0429687"/><stop stop-opacity="1" stop-color="rgb(98.757935%, 89.31427%, 3.475952%)" offset="0.046875"/><stop stop-opacity="1" stop-color="rgb(98.680115%, 88.963318%, 3.694153%)" offset="0.0507812"/><stop stop-opacity="1" stop-color="rgb(98.602295%, 88.612366%, 3.912354%)" offset="0.0546875"/><stop stop-opacity="1" stop-color="rgb(98.524475%, 88.261414%, 4.130554%)" offset="0.0585938"/><stop stop-opacity="1" stop-color="rgb(98.446655%, 87.911987%, 4.348755%)" offset="0.0625"/><stop stop-opacity="1" stop-color="rgb(98.368835%, 87.561035%, 4.566956%)" offset="0.0664062"/><stop stop-opacity="1" stop-color="rgb(98.291016%, 87.210083%, 4.785156%)" offset="0.0703125"/><stop stop-opacity="1" stop-color="rgb(98.213196%, 86.859131%, 5.003357%)" offset="0.0742188"/><stop stop-opacity="1" stop-color="rgb(98.135376%, 86.509705%, 5.221558%)" offset="0.078125"/><stop stop-opacity="1" stop-color="rgb(98.057556%, 86.158752%, 5.439758%)" offset="0.0820312"/><stop stop-opacity="1" stop-color="rgb(97.979736%, 85.809326%, 5.657959%)" offset="0.0859375"/><stop stop-opacity="1" stop-color="rgb(97.900391%, 85.458374%, 5.87616%)" offset="0.0898438"/><stop stop-opacity="1" stop-color="rgb(97.822571%, 85.107422%, 6.09436%)" offset="0.09375"/><stop stop-opacity="1" stop-color="rgb(97.744751%, 84.75647%, 6.312561%)" offset="0.0976562"/><stop stop-opacity="1" stop-color="rgb(97.666931%, 84.407043%, 6.530762%)" offset="0.101562"/><stop stop-opacity="1" stop-color="rgb(97.589111%, 84.056091%, 6.748962%)" offset="0.105469"/><stop stop-opacity="1" stop-color="rgb(97.511292%, 83.705139%, 6.967163%)" offset="0.109375"/><stop stop-opacity="1" stop-color="rgb(97.433472%, 83.354187%, 7.185364%)" offset="0.113281"/><stop stop-opacity="1" stop-color="rgb(97.355652%, 83.004761%, 7.403564%)" offset="0.117187"/><stop stop-opacity="1" stop-color="rgb(97.277832%, 82.653809%, 7.621765%)" offset="0.121094"/><stop stop-opacity="1" stop-color="rgb(97.200012%, 82.302856%, 7.839966%)" offset="0.125"/><stop stop-opacity="1" stop-color="rgb(97.122192%, 81.951904%, 8.058167%)" offset="0.128906"/><stop stop-opacity="1" stop-color="rgb(97.044373%, 81.602478%, 8.276367%)" offset="0.132812"/><stop stop-opacity="1" stop-color="rgb(96.966553%, 81.251526%, 8.494568%)" offset="0.136719"/><stop stop-opacity="1" stop-color="rgb(96.888733%, 80.9021%, 8.712769%)" offset="0.140625"/><stop stop-opacity="1" stop-color="rgb(96.810913%, 80.551147%, 8.930969%)" offset="0.144531"/><stop stop-opacity="1" stop-color="rgb(96.733093%, 80.200195%, 9.14917%)" offset="0.148437"/><stop stop-opacity="1" stop-color="rgb(96.655273%, 79.849243%, 9.365845%)" offset="0.152344"/><stop stop-opacity="1" stop-color="rgb(96.577454%, 79.499817%, 9.584045%)" offset="0.15625"/><stop stop-opacity="1" stop-color="rgb(96.499634%, 79.148865%, 9.802246%)" offset="0.160156"/><stop stop-opacity="1" stop-color="rgb(96.421814%, 78.797913%, 10.020447%)" offset="0.164062"/><stop stop-opacity="1" stop-color="rgb(96.343994%, 78.44696%, 10.238647%)" offset="0.167969"/><stop stop-opacity="1" stop-color="rgb(96.266174%, 78.097534%, 10.456848%)" offset="0.171875"/><stop stop-opacity="1" stop-color="rgb(96.186829%, 77.746582%, 10.675049%)" offset="0.175781"/><stop stop-opacity="1" stop-color="rgb(96.109009%, 77.397156%, 10.89325%)" offset="0.179687"/><stop stop-opacity="1" stop-color="rgb(96.031189%, 77.046204%, 11.11145%)" offset="0.183594"/><stop stop-opacity="1" stop-color="rgb(95.953369%, 76.695251%, 11.329651%)" offset="0.1875"/><stop stop-opacity="1" stop-color="rgb(95.875549%, 76.344299%, 11.547852%)" offset="0.191406"/><stop stop-opacity="1" stop-color="rgb(95.797729%, 75.994873%, 11.766052%)" offset="0.195312"/><stop stop-opacity="1" stop-color="rgb(95.71991%, 75.643921%, 11.984253%)" offset="0.199219"/><stop stop-opacity="1" stop-color="rgb(95.64209%, 75.292969%, 12.202454%)" offset="0.203125"/><stop stop-opacity="1" stop-color="rgb(95.56427%, 74.942017%, 12.420654%)" offset="0.207031"/><stop stop-opacity="1" stop-color="rgb(95.48645%, 74.59259%, 12.638855%)" offset="0.210937"/><stop stop-opacity="1" stop-color="rgb(95.40863%, 74.241638%, 12.857056%)" offset="0.214844"/><stop stop-opacity="1" stop-color="rgb(95.330811%, 73.892212%, 13.075256%)" offset="0.21875"/><stop stop-opacity="1" stop-color="rgb(95.252991%, 73.54126%, 13.293457%)" offset="0.222656"/><stop stop-opacity="1" stop-color="rgb(95.175171%, 73.190308%, 13.511658%)" offset="0.226562"/><stop stop-opacity="1" stop-color="rgb(95.097351%, 72.839355%, 13.729858%)" offset="0.230469"/><stop stop-opacity="1" stop-color="rgb(95.019531%, 72.489929%, 13.948059%)" offset="0.234375"/><stop stop-opacity="1" stop-color="rgb(94.941711%, 72.138977%, 14.16626%)" offset="0.238281"/><stop stop-opacity="1" stop-color="rgb(94.863892%, 71.788025%, 14.38446%)" offset="0.242187"/><stop stop-opacity="1" stop-color="rgb(94.786072%, 71.437073%, 14.602661%)" offset="0.246094"/><stop stop-opacity="1" stop-color="rgb(94.708252%, 71.087646%, 14.820862%)" offset="0.25"/><stop stop-opacity="1" stop-color="rgb(94.630432%, 70.736694%, 15.039062%)" offset="0.253906"/><stop stop-opacity="1" stop-color="rgb(94.552612%, 70.385742%, 15.257263%)" offset="0.257812"/><stop stop-opacity="1" stop-color="rgb(94.473267%, 70.03479%, 15.475464%)" offset="0.261719"/><stop stop-opacity="1" stop-color="rgb(94.395447%, 69.685364%, 15.693665%)" offset="0.265625"/><stop stop-opacity="1" stop-color="rgb(94.317627%, 69.334412%, 15.911865%)" offset="0.269531"/><stop stop-opacity="1" stop-color="rgb(94.239807%, 68.984985%, 16.130066%)" offset="0.273437"/><stop stop-opacity="1" stop-color="rgb(94.161987%, 68.634033%, 16.348267%)" offset="0.277344"/><stop stop-opacity="1" stop-color="rgb(94.084167%, 68.283081%, 16.566467%)" offset="0.28125"/><stop stop-opacity="1" stop-color="rgb(94.006348%, 67.932129%, 16.784668%)" offset="0.285156"/><stop stop-opacity="1" stop-color="rgb(93.928528%, 67.582703%, 17.002869%)" offset="0.289062"/><stop stop-opacity="1" stop-color="rgb(93.850708%, 67.23175%, 17.221069%)" offset="0.292969"/><stop stop-opacity="1" stop-color="rgb(93.772888%, 66.880798%, 17.43927%)" offset="0.296875"/><stop stop-opacity="1" stop-color="rgb(93.695068%, 66.529846%, 17.657471%)" offset="0.300781"/><stop stop-opacity="1" stop-color="rgb(93.617249%, 66.18042%, 17.875671%)" offset="0.304687"/><stop stop-opacity="1" stop-color="rgb(93.539429%, 65.829468%, 18.093872%)" offset="0.308594"/><stop stop-opacity="1" stop-color="rgb(93.461609%, 65.480042%, 18.312073%)" offset="0.3125"/><stop stop-opacity="1" stop-color="rgb(93.383789%, 65.129089%, 18.530273%)" offset="0.316406"/><stop stop-opacity="1" stop-color="rgb(93.305969%, 64.778137%, 18.748474%)" offset="0.320312"/><stop stop-opacity="1" stop-color="rgb(93.228149%, 64.427185%, 18.966675%)" offset="0.324219"/><stop stop-opacity="1" stop-color="rgb(93.15033%, 64.077759%, 19.184875%)" offset="0.328125"/><stop stop-opacity="1" stop-color="rgb(93.07251%, 63.726807%, 19.403076%)" offset="0.332031"/><stop stop-opacity="1" stop-color="rgb(92.99469%, 63.375854%, 19.621277%)" offset="0.335937"/><stop stop-opacity="1" stop-color="rgb(92.91687%, 63.024902%, 19.839478%)" offset="0.339844"/><stop stop-opacity="1" stop-color="rgb(92.83905%, 62.675476%, 20.057678%)" offset="0.34375"/><stop stop-opacity="1" stop-color="rgb(92.759705%, 62.324524%, 20.275879%)" offset="0.347656"/><stop stop-opacity="1" stop-color="rgb(92.681885%, 61.973572%, 20.49408%)" offset="0.351562"/><stop stop-opacity="1" stop-color="rgb(92.604065%, 61.62262%, 20.710754%)" offset="0.355469"/><stop stop-opacity="1" stop-color="rgb(92.526245%, 61.273193%, 20.928955%)" offset="0.359375"/><stop stop-opacity="1" stop-color="rgb(92.448425%, 60.922241%, 21.147156%)" offset="0.363281"/><stop stop-opacity="1" stop-color="rgb(92.370605%, 60.572815%, 21.365356%)" offset="0.367187"/><stop stop-opacity="1" stop-color="rgb(92.292786%, 60.221863%, 21.583557%)" offset="0.371094"/><stop stop-opacity="1" stop-color="rgb(92.214966%, 59.870911%, 21.801758%)" offset="0.375"/><stop stop-opacity="1" stop-color="rgb(92.137146%, 59.519958%, 22.019958%)" offset="0.378906"/><stop stop-opacity="1" stop-color="rgb(92.059326%, 59.170532%, 22.238159%)" offset="0.382812"/><stop stop-opacity="1" stop-color="rgb(91.981506%, 58.81958%, 22.45636%)" offset="0.386719"/><stop stop-opacity="1" stop-color="rgb(91.903687%, 58.468628%, 22.674561%)" offset="0.390625"/><stop stop-opacity="1" stop-color="rgb(91.825867%, 58.117676%, 22.892761%)" offset="0.394531"/><stop stop-opacity="1" stop-color="rgb(91.748047%, 57.76825%, 23.110962%)" offset="0.398437"/><stop stop-opacity="1" stop-color="rgb(91.670227%, 57.417297%, 23.329163%)" offset="0.402344"/><stop stop-opacity="1" stop-color="rgb(91.592407%, 57.067871%, 23.547363%)" offset="0.40625"/><stop stop-opacity="1" stop-color="rgb(91.514587%, 56.716919%, 23.765564%)" offset="0.410156"/><stop stop-opacity="1" stop-color="rgb(91.436768%, 56.365967%, 23.983765%)" offset="0.414062"/><stop stop-opacity="1" stop-color="rgb(91.358948%, 56.015015%, 24.201965%)" offset="0.417969"/><stop stop-opacity="1" stop-color="rgb(91.281128%, 55.665588%, 24.420166%)" offset="0.421875"/><stop stop-opacity="1" stop-color="rgb(91.203308%, 55.314636%, 24.638367%)" offset="0.425781"/><stop stop-opacity="1" stop-color="rgb(91.125488%, 54.963684%, 24.856567%)" offset="0.429687"/><stop stop-opacity="1" stop-color="rgb(91.046143%, 54.612732%, 25.074768%)" offset="0.433594"/><stop stop-opacity="1" stop-color="rgb(90.968323%, 54.263306%, 25.292969%)" offset="0.4375"/><stop stop-opacity="1" stop-color="rgb(90.890503%, 53.912354%, 25.511169%)" offset="0.441406"/><stop stop-opacity="1" stop-color="rgb(90.812683%, 53.561401%, 25.72937%)" offset="0.445312"/><stop stop-opacity="1" stop-color="rgb(90.734863%, 53.210449%, 25.947571%)" offset="0.449219"/><stop stop-opacity="1" stop-color="rgb(90.657043%, 52.861023%, 26.165771%)" offset="0.453125"/><stop stop-opacity="1" stop-color="rgb(90.579224%, 52.510071%, 26.383972%)" offset="0.457031"/><stop stop-opacity="1" stop-color="rgb(90.501404%, 52.160645%, 26.602173%)" offset="0.460937"/><stop stop-opacity="1" stop-color="rgb(90.423584%, 51.809692%, 26.820374%)" offset="0.464844"/><stop stop-opacity="1" stop-color="rgb(90.345764%, 51.45874%, 27.038574%)" offset="0.46875"/><stop stop-opacity="1" stop-color="rgb(90.267944%, 51.107788%, 27.256775%)" offset="0.472656"/><stop stop-opacity="1" stop-color="rgb(90.190125%, 50.758362%, 27.474976%)" offset="0.476562"/><stop stop-opacity="1" stop-color="rgb(90.112305%, 50.40741%, 27.693176%)" offset="0.480469"/><stop stop-opacity="1" stop-color="rgb(90.034485%, 50.056458%, 27.911377%)" offset="0.484375"/><stop stop-opacity="1" stop-color="rgb(89.956665%, 49.705505%, 28.129578%)" offset="0.488281"/><stop stop-opacity="1" stop-color="rgb(89.878845%, 49.356079%, 28.347778%)" offset="0.492187"/><stop stop-opacity="1" stop-color="rgb(89.801025%, 49.005127%, 28.565979%)" offset="0.496094"/><stop stop-opacity="1" stop-color="rgb(89.723206%, 48.655701%, 28.78418%)" offset="0.5"/><stop stop-opacity="1" stop-color="rgb(89.645386%, 48.304749%, 29.00238%)" offset="0.503906"/><stop stop-opacity="1" stop-color="rgb(89.567566%, 47.953796%, 29.220581%)" offset="0.507812"/><stop stop-opacity="1" stop-color="rgb(89.489746%, 47.602844%, 29.438782%)" offset="0.511719"/><stop stop-opacity="1" stop-color="rgb(89.411926%, 47.253418%, 29.656982%)" offset="0.515625"/><stop stop-opacity="1" stop-color="rgb(89.332581%, 46.902466%, 29.875183%)" offset="0.519531"/><stop stop-opacity="1" stop-color="rgb(89.254761%, 46.551514%, 30.093384%)" offset="0.523437"/><stop stop-opacity="1" stop-color="rgb(89.176941%, 46.200562%, 30.311584%)" offset="0.527344"/><stop stop-opacity="1" stop-color="rgb(89.099121%, 45.851135%, 30.529785%)" offset="0.53125"/><stop stop-opacity="1" stop-color="rgb(89.021301%, 45.500183%, 30.747986%)" offset="0.535156"/><stop stop-opacity="1" stop-color="rgb(88.943481%, 45.150757%, 30.966187%)" offset="0.539062"/><stop stop-opacity="1" stop-color="rgb(88.865662%, 44.799805%, 31.184387%)" offset="0.542969"/><stop stop-opacity="1" stop-color="rgb(88.787842%, 44.448853%, 31.402588%)" offset="0.546875"/><stop stop-opacity="1" stop-color="rgb(88.710022%, 44.0979%, 31.620789%)" offset="0.550781"/><stop stop-opacity="1" stop-color="rgb(88.632202%, 43.748474%, 31.838989%)" offset="0.554687"/><stop stop-opacity="1" stop-color="rgb(88.554382%, 43.397522%, 32.055664%)" offset="0.558594"/><stop stop-opacity="1" stop-color="rgb(88.476562%, 43.04657%, 32.273865%)" offset="0.5625"/><stop stop-opacity="1" stop-color="rgb(88.398743%, 42.695618%, 32.492065%)" offset="0.566406"/><stop stop-opacity="1" stop-color="rgb(88.320923%, 42.346191%, 32.710266%)" offset="0.570312"/><stop stop-opacity="1" stop-color="rgb(88.243103%, 41.995239%, 32.928467%)" offset="0.574219"/><stop stop-opacity="1" stop-color="rgb(88.165283%, 41.644287%, 33.146667%)" offset="0.578125"/><stop stop-opacity="1" stop-color="rgb(88.087463%, 41.293335%, 33.364868%)" offset="0.582031"/><stop stop-opacity="1" stop-color="rgb(88.009644%, 40.943909%, 33.583069%)" offset="0.585937"/><stop stop-opacity="1" stop-color="rgb(87.931824%, 40.592957%, 33.80127%)" offset="0.589844"/><stop stop-opacity="1" stop-color="rgb(87.854004%, 40.24353%, 34.01947%)" offset="0.59375"/><stop stop-opacity="1" stop-color="rgb(87.776184%, 39.892578%, 34.237671%)" offset="0.597656"/><stop stop-opacity="1" stop-color="rgb(87.698364%, 39.541626%, 34.455872%)" offset="0.601562"/><stop stop-opacity="1" stop-color="rgb(87.619019%, 39.190674%, 34.674072%)" offset="0.605469"/><stop stop-opacity="1" stop-color="rgb(87.541199%, 38.841248%, 34.892273%)" offset="0.609375"/><stop stop-opacity="1" stop-color="rgb(87.463379%, 38.490295%, 35.110474%)" offset="0.613281"/><stop stop-opacity="1" stop-color="rgb(87.385559%, 38.139343%, 35.328674%)" offset="0.617187"/><stop stop-opacity="1" stop-color="rgb(87.307739%, 37.788391%, 35.546875%)" offset="0.621094"/><stop stop-opacity="1" stop-color="rgb(87.229919%, 37.438965%, 35.765076%)" offset="0.625"/><stop stop-opacity="1" stop-color="rgb(87.1521%, 37.088013%, 35.983276%)" offset="0.628906"/><stop stop-opacity="1" stop-color="rgb(87.07428%, 36.738586%, 36.201477%)" offset="0.632812"/><stop stop-opacity="1" stop-color="rgb(86.99646%, 36.387634%, 36.419678%)" offset="0.636719"/><stop stop-opacity="1" stop-color="rgb(86.91864%, 36.036682%, 36.637878%)" offset="0.640625"/><stop stop-opacity="1" stop-color="rgb(86.84082%, 35.68573%, 36.856079%)" offset="0.644531"/><stop stop-opacity="1" stop-color="rgb(86.763%, 35.336304%, 37.07428%)" offset="0.648437"/><stop stop-opacity="1" stop-color="rgb(86.685181%, 34.985352%, 37.29248%)" offset="0.652344"/><stop stop-opacity="1" stop-color="rgb(86.607361%, 34.634399%, 37.510681%)" offset="0.65625"/><stop stop-opacity="1" stop-color="rgb(86.529541%, 34.283447%, 37.728882%)" offset="0.660156"/><stop stop-opacity="1" stop-color="rgb(86.451721%, 33.934021%, 37.947083%)" offset="0.664062"/><stop stop-opacity="1" stop-color="rgb(86.373901%, 33.583069%, 38.165283%)" offset="0.667969"/><stop stop-opacity="1" stop-color="rgb(86.296082%, 33.232117%, 38.383484%)" offset="0.671875"/><stop stop-opacity="1" stop-color="rgb(86.218262%, 32.881165%, 38.601685%)" offset="0.675781"/><stop stop-opacity="1" stop-color="rgb(86.140442%, 32.531738%, 38.819885%)" offset="0.679687"/><stop stop-opacity="1" stop-color="rgb(86.061096%, 32.180786%, 39.038086%)" offset="0.683594"/><stop stop-opacity="1" stop-color="rgb(85.983276%, 31.83136%, 39.256287%)" offset="0.6875"/><stop stop-opacity="1" stop-color="rgb(85.905457%, 31.480408%, 39.474487%)" offset="0.691406"/><stop stop-opacity="1" stop-color="rgb(85.827637%, 31.129456%, 39.692688%)" offset="0.695312"/><stop stop-opacity="1" stop-color="rgb(85.749817%, 30.778503%, 39.910889%)" offset="0.699219"/><stop stop-opacity="1" stop-color="rgb(85.671997%, 30.429077%, 40.129089%)" offset="0.703125"/><stop stop-opacity="1" stop-color="rgb(85.594177%, 30.078125%, 40.34729%)" offset="0.707031"/><stop stop-opacity="1" stop-color="rgb(85.516357%, 29.727173%, 40.565491%)" offset="0.710937"/><stop stop-opacity="1" stop-color="rgb(85.438538%, 29.376221%, 40.783691%)" offset="0.714844"/><stop stop-opacity="1" stop-color="rgb(85.360718%, 29.026794%, 41.001892%)" offset="0.71875"/><stop stop-opacity="1" stop-color="rgb(85.282898%, 28.675842%, 41.220093%)" offset="0.722656"/><stop stop-opacity="1" stop-color="rgb(85.205078%, 28.326416%, 41.438293%)" offset="0.726562"/><stop stop-opacity="1" stop-color="rgb(85.127258%, 27.975464%, 41.656494%)" offset="0.730469"/><stop stop-opacity="1" stop-color="rgb(85.049438%, 27.624512%, 41.874695%)" offset="0.734375"/><stop stop-opacity="1" stop-color="rgb(84.971619%, 27.27356%, 42.092896%)" offset="0.738281"/><stop stop-opacity="1" stop-color="rgb(84.893799%, 26.924133%, 42.311096%)" offset="0.742187"/><stop stop-opacity="1" stop-color="rgb(84.815979%, 26.573181%, 42.529297%)" offset="0.746094"/><stop stop-opacity="1" stop-color="rgb(84.738159%, 26.222229%, 42.747498%)" offset="0.75"/><stop stop-opacity="1" stop-color="rgb(84.660339%, 25.871277%, 42.965698%)" offset="0.753906"/><stop stop-opacity="1" stop-color="rgb(84.58252%, 25.521851%, 43.183899%)" offset="0.757812"/><stop stop-opacity="1" stop-color="rgb(84.5047%, 25.170898%, 43.400574%)" offset="0.761719"/><stop stop-opacity="1" stop-color="rgb(84.42688%, 24.821472%, 43.618774%)" offset="0.765625"/><stop stop-opacity="1" stop-color="rgb(84.347534%, 24.47052%, 43.836975%)" offset="0.769531"/><stop stop-opacity="1" stop-color="rgb(84.269714%, 24.119568%, 44.055176%)" offset="0.773437"/><stop stop-opacity="1" stop-color="rgb(84.191895%, 23.768616%, 44.273376%)" offset="0.777344"/><stop stop-opacity="1" stop-color="rgb(84.114075%, 23.419189%, 44.491577%)" offset="0.78125"/><stop stop-opacity="1" stop-color="rgb(84.036255%, 23.068237%, 44.709778%)" offset="0.785156"/><stop stop-opacity="1" stop-color="rgb(83.958435%, 22.717285%, 44.927979%)" offset="0.789062"/><stop stop-opacity="1" stop-color="rgb(83.880615%, 22.366333%, 45.146179%)" offset="0.792969"/><stop stop-opacity="1" stop-color="rgb(83.802795%, 22.016907%, 45.36438%)" offset="0.796875"/><stop stop-opacity="1" stop-color="rgb(83.724976%, 21.665955%, 45.582581%)" offset="0.800781"/><stop stop-opacity="1" stop-color="rgb(83.647156%, 21.315002%, 45.800781%)" offset="0.804687"/><stop stop-opacity="1" stop-color="rgb(83.569336%, 20.96405%, 46.018982%)" offset="0.808594"/><stop stop-opacity="1" stop-color="rgb(83.491516%, 20.614624%, 46.237183%)" offset="0.8125"/><stop stop-opacity="1" stop-color="rgb(83.413696%, 20.263672%, 46.455383%)" offset="0.816406"/><stop stop-opacity="1" stop-color="rgb(83.335876%, 19.914246%, 46.673584%)" offset="0.820312"/><stop stop-opacity="1" stop-color="rgb(83.258057%, 19.563293%, 46.891785%)" offset="0.824219"/><stop stop-opacity="1" stop-color="rgb(83.180237%, 19.212341%, 47.109985%)" offset="0.828125"/><stop stop-opacity="1" stop-color="rgb(83.102417%, 18.861389%, 47.328186%)" offset="0.832031"/><stop stop-opacity="1" stop-color="rgb(83.024597%, 18.511963%, 47.546387%)" offset="0.835937"/><stop stop-opacity="1" stop-color="rgb(82.946777%, 18.161011%, 47.764587%)" offset="0.839844"/><stop stop-opacity="1" stop-color="rgb(82.868958%, 17.810059%, 47.982788%)" offset="0.84375"/><stop stop-opacity="1" stop-color="rgb(82.791138%, 17.459106%, 48.200989%)" offset="0.847656"/><stop stop-opacity="1" stop-color="rgb(82.713318%, 17.10968%, 48.419189%)" offset="0.851562"/><stop stop-opacity="1" stop-color="rgb(82.633972%, 16.758728%, 48.63739%)" offset="0.855469"/><stop stop-opacity="1" stop-color="rgb(82.556152%, 16.409302%, 48.855591%)" offset="0.859375"/><stop stop-opacity="1" stop-color="rgb(82.478333%, 16.05835%, 49.073792%)" offset="0.863281"/><stop stop-opacity="1" stop-color="rgb(82.400513%, 15.707397%, 49.291992%)" offset="0.867187"/><stop stop-opacity="1" stop-color="rgb(82.322693%, 15.356445%, 49.510193%)" offset="0.871094"/><stop stop-opacity="1" stop-color="rgb(82.244873%, 15.007019%, 49.728394%)" offset="0.875"/><stop stop-opacity="1" stop-color="rgb(82.167053%, 14.656067%, 49.946594%)" offset="0.878906"/><stop stop-opacity="1" stop-color="rgb(82.089233%, 14.305115%, 50.164795%)" offset="0.882812"/><stop stop-opacity="1" stop-color="rgb(82.011414%, 13.954163%, 50.382996%)" offset="0.886719"/><stop stop-opacity="1" stop-color="rgb(81.933594%, 13.604736%, 50.601196%)" offset="0.890625"/><stop stop-opacity="1" stop-color="rgb(81.855774%, 13.253784%, 50.819397%)" offset="0.894531"/><stop stop-opacity="1" stop-color="rgb(81.777954%, 12.902832%, 51.037598%)" offset="0.898437"/><stop stop-opacity="1" stop-color="rgb(81.700134%, 12.55188%, 51.255798%)" offset="0.902344"/><stop stop-opacity="1" stop-color="rgb(81.622314%, 12.202454%, 51.473999%)" offset="0.90625"/><stop stop-opacity="1" stop-color="rgb(81.544495%, 11.851501%, 51.6922%)" offset="0.910156"/><stop stop-opacity="1" stop-color="rgb(81.466675%, 11.502075%, 51.9104%)" offset="0.914062"/><stop stop-opacity="1" stop-color="rgb(81.388855%, 11.151123%, 52.128601%)" offset="0.917969"/><stop stop-opacity="1" stop-color="rgb(81.311035%, 10.800171%, 52.346802%)" offset="0.921875"/><stop stop-opacity="1" stop-color="rgb(81.233215%, 10.449219%, 52.565002%)" offset="0.925781"/><stop stop-opacity="1" stop-color="rgb(81.155396%, 10.099792%, 52.783203%)" offset="0.929687"/><stop stop-opacity="1" stop-color="rgb(81.077576%, 9.74884%, 53.001404%)" offset="0.933594"/><stop stop-opacity="1" stop-color="rgb(80.999756%, 9.397888%, 53.219604%)" offset="0.9375"/><stop stop-opacity="1" stop-color="rgb(80.92041%, 9.046936%, 53.437805%)" offset="0.941406"/><stop stop-opacity="1" stop-color="rgb(80.84259%, 8.69751%, 53.656006%)" offset="0.945312"/><stop stop-opacity="1" stop-color="rgb(80.764771%, 8.346558%, 53.874207%)" offset="0.949219"/><stop stop-opacity="1" stop-color="rgb(80.686951%, 7.997131%, 54.092407%)" offset="0.953125"/><stop stop-opacity="1" stop-color="rgb(80.609131%, 7.646179%, 54.310608%)" offset="0.957031"/><stop stop-opacity="1" stop-color="rgb(80.531311%, 7.295227%, 54.528809%)" offset="0.960937"/><stop stop-opacity="1" stop-color="rgb(80.464172%, 6.996155%, 54.71344%)" offset="0.964844"/><stop stop-opacity="1" stop-color="rgb(80.39856%, 6.698608%, 54.899597%)" offset="0.96875"/><stop stop-opacity="1" stop-color="rgb(80.39856%, 6.698608%, 54.899597%)" offset="1"/></linearGradient></defs><g clip-path="url(#4eadf31659)"><g clip-path="url(#5c82d83254)"><path fill="url(#d5fbec6b2e)" d="M 37.5 0 L 37.5 375 L 337.5 375 L 337.5 0 Z M 37.5 0 " fill-rule="nonzero"/></g></g></svg>